<svg width="53" height="22" viewBox="0 0 53 22" fill="none" xmlns="http://www.w3.org/2000/svg">
<rect width="53" height="22" rx="1.15789" fill="#F6F8FA"/>
<g clip-path="url(#clip0_1910_17214)">
<path d="M12.2082 14.2991C12.2082 13.7915 12.2137 12.4346 12.2012 12.2674C12.2121 10.2483 10.7481 8.82405 9.82331 8.93508C9.18335 8.99078 8.64702 9.25246 8.35905 10.0053C8.09215 10.7068 8.33077 11.64 9.21816 11.859C10.167 12.0942 10.7211 12.2898 11.1221 12.5658C11.6134 12.9038 12.0145 13.5494 12.0252 14.2999" fill="#008AFC"/>
<path d="M12.587 17.3684C10.9139 17.3684 9.19441 16.9552 7.47722 16.1379L7.43509 16.1171L7.41493 16.074C6.64433 14.4428 6.23682 12.6587 6.23682 10.9131C6.23682 9.17016 6.62761 7.46237 7.39879 5.83335L7.41997 5.79006L7.46291 5.76847C9.0514 5.01384 10.7602 4.63159 12.5435 4.63159C14.2047 4.63159 15.9788 5.05713 17.6732 5.86435L17.7167 5.88376L17.7368 5.92785C18.5221 7.58914 18.9363 9.37283 18.9363 11.0895C18.9363 12.7994 18.5386 14.5087 17.7523 16.169L17.7316 16.2126L17.6879 16.2328C16.1236 16.9754 14.3596 17.3684 12.587 17.3684ZM7.63615 15.9142C9.30434 16.7011 10.9681 17.0985 12.587 17.0985C14.3036 17.0985 16.0109 16.7222 17.5305 16.0089C18.2855 14.4001 18.6681 12.7443 18.6681 11.0895C18.6681 9.42794 18.2687 7.6996 17.5132 6.08723C15.8689 5.31204 14.1516 4.90097 12.5435 4.90097C10.817 4.90097 9.16224 5.26818 7.62172 5.99261C6.88227 7.57157 6.5059 9.22608 6.5059 10.9131C6.5059 12.6033 6.89704 14.3324 7.63615 15.9142Z" fill="#008AFC"/>
<path d="M11.8116 14.3002C11.8147 13.6495 11.4525 13.0741 10.9792 12.7649C10.5593 12.4916 9.99558 12.312 9.08621 12.0807C8.8051 12.0086 8.51106 11.8484 8.42003 11.6443C8.17923 11.8876 8.13549 12.4346 8.17786 12.7543C8.22709 13.1243 8.6582 13.734 9.30731 13.7579C9.70372 13.7738 10.2049 13.6723 10.4452 13.6211C10.8598 13.5313 11.5158 13.7917 11.6203 14.2994" fill="#008AFC"/>
<path d="M12.5432 5.78833C11.4426 5.78833 10.4919 6.51621 10.4954 7.77572C10.4988 8.83487 11.3482 9.40187 11.6513 9.80686C12.1093 10.4172 12.3572 11.1395 12.3829 12.2448C12.403 13.1245 12.402 13.9931 12.4064 14.301H12.6494C12.6452 13.9789 12.6342 13.0568 12.6468 12.2176C12.6632 11.112 12.9201 10.4172 13.3783 9.80686C13.684 9.40187 14.5327 8.83487 14.5346 7.77572C14.5387 6.51621 13.5885 5.78833 12.4889 5.78833" fill="#008AFC"/>
<path d="M12.8229 14.2991C12.8229 13.7915 12.8171 12.4346 12.8294 12.2674C12.8186 10.2483 14.2816 8.82405 15.2073 8.93508C15.8472 8.99078 16.383 9.25246 16.6718 10.0053C16.9384 10.7068 16.6984 11.64 15.8121 11.859C14.8627 12.0942 14.3093 12.2898 13.9073 12.5658C13.4166 12.9038 13.0435 13.5494 13.0321 14.2999" fill="#008AFC"/>
<path d="M13.2195 14.3002C13.2161 13.6495 13.5781 13.0741 14.0501 12.7649C14.4717 12.4916 15.0361 12.312 15.9447 12.0807C16.2263 12.0086 16.52 11.8484 16.6095 11.6443C16.8514 11.8876 16.895 12.4346 16.8527 12.7543C16.8024 13.1243 16.3724 13.734 15.7245 13.7579C15.3282 13.7738 14.8244 13.6723 14.5851 13.6211C14.1721 13.5313 13.5142 13.7917 13.4094 14.2994" fill="#008AFC"/>
<path d="M13.5586 16.401L13.4177 15.3704L13.7577 15.3188C13.8405 15.3074 13.9412 15.3219 13.9815 15.3739C14.0261 15.4282 14.0397 15.4731 14.0483 15.5443C14.0611 15.6323 14.0357 15.7342 13.9368 15.7849V15.788C14.0473 15.788 14.114 15.8676 14.1334 16.002C14.1362 16.0303 14.1446 16.0989 14.1362 16.156C14.1138 16.2921 14.0328 16.3359 13.8962 16.355L13.5586 16.401ZM13.7774 16.2165C13.8177 16.2107 13.8586 16.2085 13.8905 16.1881C13.9394 16.1561 13.9349 16.0875 13.9282 16.0366C13.9111 15.9248 13.882 15.8823 13.7638 15.8999L13.6894 15.9114L13.7365 16.2222L13.7774 16.2165ZM13.7062 15.7403C13.7512 15.733 13.8122 15.7275 13.8376 15.6847C13.8509 15.6561 13.8679 15.6334 13.8567 15.5698C13.8429 15.4943 13.8179 15.4476 13.7224 15.4657L13.6334 15.4801L13.6685 15.7442" fill="#008AFC"/>
<path d="M15.0311 15.7809C15.0338 15.8001 15.0369 15.8215 15.038 15.8407C15.0655 16.0286 15.0311 16.1842 14.8205 16.227C14.509 16.2872 14.4494 16.0932 14.3945 15.8215L14.3653 15.6745C14.3224 15.4145 14.3039 15.2177 14.6076 15.1571C14.7788 15.1258 14.8919 15.1941 14.939 15.3649C14.9463 15.3904 14.9555 15.4157 14.9589 15.4413L14.7726 15.4799C14.7511 15.4157 14.7226 15.301 14.6387 15.3106C14.4883 15.3288 14.538 15.5165 14.5534 15.5949L14.6094 15.8771C14.6263 15.9624 14.6597 16.0987 14.7899 16.0724C14.8956 16.0511 14.8495 15.886 14.8402 15.8184" fill="#008AFC"/>
<path d="M15.3303 16.0928L15.2659 15.0264L15.5162 14.9498L16.0409 15.8773L15.8439 15.9365L15.7195 15.7007L15.5007 15.7666L15.529 16.0346L15.3303 16.0928ZM15.4824 15.5944L15.6405 15.5485L15.4305 15.117" fill="#008AFC"/>
<path d="M9.14795 15.2865C9.22627 15.0351 9.29646 14.85 9.59531 14.9322C9.75527 14.977 9.85443 15.0477 9.84973 15.2341C9.84896 15.2755 9.83531 15.3178 9.82638 15.3588L9.64031 15.3072C9.6647 15.2043 9.68016 15.1227 9.55375 15.0836C9.40764 15.0434 9.37203 15.2211 9.35188 15.2978L9.27619 15.5774C9.25215 15.6604 9.22329 15.7976 9.35188 15.833C9.45814 15.8617 9.5226 15.7571 9.56107 15.6044L9.43088 15.5698L9.47588 15.408L9.78195 15.5068L9.63665 16.0456L9.49581 16.0073L9.52752 15.8934H9.52351C9.45871 15.9865 9.37959 15.9963 9.31031 15.9829C9.00425 15.8999 9.03619 15.6993 9.10925 15.4313" fill="#008AFC"/>
<path d="M10.2874 15.7417L10.1953 16.1801L9.98779 16.1351L10.2089 15.1115L10.5626 15.1916C10.7696 15.2364 10.8321 15.3288 10.8028 15.5191C10.7861 15.6283 10.7324 15.746 10.6013 15.7364L10.5999 15.7347C10.7108 15.7736 10.7202 15.8296 10.7008 15.9265C10.6924 15.9677 10.6348 16.218 10.6746 16.2584L10.676 16.289L10.4613 16.2329C10.4523 16.1635 10.4827 16.0388 10.4947 15.9698C10.5068 15.9087 10.5262 15.8226 10.4644 15.7902C10.4159 15.7644 10.3979 15.7657 10.3432 15.753L10.2874 15.7417ZM10.3228 15.5832L10.4625 15.6209C10.5474 15.6332 10.5945 15.5891 10.6113 15.4864C10.6264 15.3921 10.6068 15.3552 10.5306 15.337L10.3809 15.3065" fill="#008AFC"/>
<path d="M11.618 15.3403L11.8232 15.3642L11.7348 16.0838C11.6919 16.312 11.604 16.4117 11.3537 16.3805C11.099 16.3482 11.0385 16.2319 11.054 16.0019L11.143 15.2829L11.3498 15.3067L11.261 16.0096C11.2516 16.086 11.234 16.1991 11.3695 16.2127C11.4896 16.2219 11.5168 16.1421 11.5303 16.0429" fill="#008AFC"/>
<path d="M12.0496 16.4198L12.1113 15.3907L12.5055 15.4079C12.6918 15.417 12.7406 15.5696 12.7347 15.7152C12.7294 15.8038 12.7018 15.9026 12.6248 15.9563C12.5617 16.0018 12.4807 16.0126 12.4054 16.009L12.277 16.0018L12.2513 16.4331L12.0496 16.4198ZM12.2828 15.8449L12.3872 15.8507C12.4721 15.8538 12.5283 15.8202 12.5356 15.6953C12.5397 15.5753 12.4945 15.555 12.3846 15.5501L12.3018 15.5473" fill="#008AFC"/>
<path d="M39.8541 6.78327L38.2873 9.63518C37.6959 9.1536 36.9737 8.79914 36.0523 8.79914C33.8718 8.79914 32.9862 10.4291 32.9862 11.5772C32.9862 12.4294 33.5426 13.6869 35.4828 13.6869C36.2971 13.6869 37.4549 13.1187 37.7881 12.8603L36.2384 16.169C35.4997 16.3167 35.2571 16.4084 34.6318 16.4278C31.1593 16.5317 29.7561 14.3925 29.7571 12.2066C29.7594 9.31688 32.3214 5.80255 36.5685 5.80255C36.8288 5.80255 37.1471 5.89281 37.4192 5.99282L37.6943 5.64008" fill="#008AFC"/>
<path d="M46.319 5.72925L46.7627 16.0947H43.4607L43.4587 14.317H41.2071L40.4661 16.0947H36.885L40.6289 8.69288L39.7847 8.68737L41.3887 5.72925H46.319ZM43.4373 8.90026L42.1643 11.9152H43.4757" fill="#008AFC"/>
<path d="M27.6728 5.72924C29.308 5.73843 30.2321 6.62855 30.2321 7.91436C30.2321 9.0997 29.2575 10.149 28.1877 10.6915C29.2891 11.0975 29.3844 12.0942 29.3844 12.7994C29.3844 14.5029 27.6798 16.0947 25.4641 16.0947H20.6318L22.5168 8.79599L21.7425 8.79151L23.3253 5.72924C23.3253 5.72924 26.3431 5.72006 27.6728 5.72924ZM26.0685 9.93183C26.4068 9.93183 27.004 9.84595 27.1533 9.18949C27.3169 8.47689 26.7565 8.45771 26.4876 8.45771L25.5269 8.45349L25.1919 9.93187L26.0685 9.93183ZM24.7103 11.7635L24.268 13.4671H25.3991C25.8442 13.4671 26.4507 13.2456 26.5994 12.6912C26.7462 12.1352 26.3221 11.7635 25.8787 11.7635" fill="#008AFC"/>
</g>
<rect x="0.289474" y="0.289474" width="52.4211" height="21.4211" rx="0.868421" stroke="#D3DEE8" stroke-opacity="0.3" stroke-width="0.578947"/>
<defs>
<clipPath id="clip0_1910_17214">
<rect width="40.5263" height="12.7368" fill="white" transform="translate(6.23682 4.63159)"/>
</clipPath>
</defs>
</svg>
